PathFileType	4	(X/Y/Z)	../motion_lab\static\static_01\task.trc
DataRate	CameraRate	NumFrames	NumMarkers	Units	OrigDataRate	OrigDataStartFrame	OrigNumFrames
200.000000	200.000000	4	73	mm	200.000000	173	693
Frame#	Time	Athlete_3:GLAB			Athlete_3:RFHD			Athlete_3:LFHD			Athlete_3:C7			Athlete_3:T6			Athlete_3:SPINMOL			Athlete_3:SPINM2			Athlete_3:SPINM3			Athlete_3:T12			Athlete_3:BELTOL			Athlete_3:BELT2			Athlete_3:BELT3			Athlete_3:SACROL			Athlete_3:SACR2			Athlete_3:SACR3			Athlete_3:LASI			Athlete_3:RASI			Athlete_3:LPSI			Athlete_3:RPSI			Athlete_3:LTHOL			Athlete_3:LTH2			Athlete_3:LTH3			Athlete_3:LKNEL			Athlete_3:LKNEM			Athlete_3:LFIB			Athlete_3:LSHAOL			Athlete_3:LSHA2			Athlete_3:LSHA3			Athlete_3:LMALL			Athlete_3:LMALM			Athlete_3:LHEE			Athlete_3:LTOE			Athlete_3:LM5			Athlete_3:RTHOL			Athlete_3:RTH2			Athlete_3:RTH3			Athlete_3:RKNEL			Athlete_3:RKNEM			Athlete_3:RFIB			Athlete_3:RSHAOL			Athlete_3:RSHA2			Athlete_3:RSHA3			Athlete_3:RMALL			Athlete_3:RMALM			Athlete_3:RHEE			Athlete_3:RTOE			Athlete_3:RM5			Athlete_3:STRN			Athlete_3:XIPH			Athlete_3:LACR			Athlete_3:LUAOL			Athlete_3:LUA2			Athlete_3:LUA3			Athlete_3:LCUBL			Athlete_3:LCUBM			Athlete_3:LLAOL			Athlete_3:LLA2			Athlete_3:LLA3			Athlete_3:LWRR			Athlete_3:LWRU			Athlete_3:RACR			Athlete_3:RUAOL			Athlete_3:RUA2			Athlete_3:RUA3			Athlete_3:RCUBL			Athlete_3:RCUBM			Athlete_3:RLAOL			Athlete_3:RLA2			Athlete_3:RLA3			Athlete_3:RWRR			Athlete_3:RWRU			Bar:BL			Bar:BR			
		X1	Y1	Z1	X2	Y2	Z2	X3	Y3	Z3	X4	Y4	Z4	X5	Y5	Z5	X6	Y6	Z6	X7	Y7	Z7	X8	Y8	Z8	X9	Y9	Z9	X10	Y10	Z10	X11	Y11	Z11	X12	Y12	Z12	X13	Y13	Z13	X14	Y14	Z14	X15	Y15	Z15	X16	Y16	Z16	X17	Y17	Z17	X18	Y18	Z18	X19	Y19	Z19	X20	Y20	Z20	X21	Y21	Z21	X22	Y22	Z22	X23	Y23	Z23	X24	Y24	Z24	X25	Y25	Z25	X26	Y26	Z26	X27	Y27	Z27	X28	Y28	Z28	X29	Y29	Z29	X30	Y30	Z30	X31	Y31	Z31	X32	Y32	Z32	X33	Y33	Z33	X34	Y34	Z34	X35	Y35	Z35	X36	Y36	Z36	X37	Y37	Z37	X38	Y38	Z38	X39	Y39	Z39	X40	Y40	Z40	X41	Y41	Z41	X42	Y42	Z42	X43	Y43	Z43	X44	Y44	Z44	X45	Y45	Z45	X46	Y46	Z46	X47	Y47	Z47	X48	Y48	Z48	X49	Y49	Z49	X50	Y50	Z50	X51	Y51	Z51	X52	Y52	Z52	X53	Y53	Z53	X54	Y54	Z54	X55	Y55	Z55	X56	Y56	Z56	X57	Y57	Z57	X58	Y58	Z58	X59	Y59	Z59	X60	Y60	Z60	X61	Y61	Z61	X62	Y62	Z62	X63	Y63	Z63	X64	Y64	Z64	X65	Y65	Z65	X66	Y66	Z66	X67	Y67	Z67	X68	Y68	Z68	X69	Y69	Z69	X70	Y70	Z70	X71	Y71	Z71	X72	Y72	Z72	X73	Y73	Z73	

174	0.865	1215.650634765625	1573.238281250001	358.450653076172	1138.942626953125	1588.278930664063	299.9780273437501	1291.084106445313	1588.440429687501	295.3048095703126	1211.517456054688	1449.259643554688	133.7369689941407	1226.073852539063	1244.510620117188	78.61898040771487	1230.357788085938	1212.21044921875	74.30695343017581	1178.505249023438	1151.287353515625	69.35401153564456	1227.412353515625	1150.41015625	78.56066894531253	1226.27685546875	1109.527465820313	91.81130981445315	1225.566284179688	1087.094360351563	68.39115142822268	1172.46044921875	1027.50341796875	69.69087219238284	1222.040161132813	1025.331420898438	62.00523376464847	1247.37158203125	975.6262207031255	72.73637390136722	1197.734985351563	985.2187500000005	79.82603454589847	1208.867919921875	927.2243041992192	49.28264236450198	1336.3759765625	942.4267578125005	288.5669555664064	1108.786743164063	941.9966430664067	292.819549560547	1259.260864257813	991.7167358398442	84.43093109130862	1170.110961914063	990.3665161132817	85.22843170166018	1443.362548828125	737.6173095703127	202.3597869873048	1426.436157226563	677.0736083984377	153.1082153320313	1440.52099609375	675.6269531250002	201.3899078369142	1426.947875976563	497.9961547851565	192.5269165039064	1283.06201171875	465.9984130859377	215.9107360839845	1428.0009765625	442.3732910156252	152.2940521240235	1449.63525390625	326.3475646972657	144.8272705078126	1444.316650390625	260.3057556152345	101.6634979248047	1449.947631835938	264.4796142578126	150.9852447509766	1434.09228515625	85.34012603759768	126.1562728881837	1350.443237304688	96.33484649658209	169.3601074218751	1374.831420898438	38.92298889160158	78.43233489990237	1391.238037109375	47.29980087280275	289.6470947265626	1492.150634765625	32.11125946044923	238.5620727539064	1006.075622558594	708.301696777344	175.8535156250001	992.4104003906255	636.0679321289065	207.2267303466798	1009.280151367188	647.6894531250002	161.4475250244141	1013.476013183594	496.8543701171877	161.4473114013672	1151.451782226563	461.5666198730471	209.2906494140626	1014.915771484375	442.4824829101565	117.402328491211	998.242797851563	323.2207946777345	91.99873352050784	982.9942016601567	255.8950958251954	131.4337158203126	1002.143798828125	262.1277770996095	85.39026641845706	1016.784851074219	86.78813171386722	90.09424591064456	1084.266235351563	97.01927185058599	153.061264038086	1077.669311523438	38.27292251586915	58.05373001098636	1022.24365234375	43.20078277587892	261.6053161621095	937.2058715820317	40.96652984619142	202.3529205322267	1224.253540039063	1365.997314453125	282.6993103027345	1226.3203125	1208.384887695313	319.5927734375001	1399.767211914063	1413.022583007813	143.7774353027344	1513.290405273438	1347.883056640625	130.875228881836	1555.545166015626	1297.352783203125	121.3177185058594	1572.769042968751	1332.646728515625	155.5411682128907	1681.064208984376	1295.112548828125	166.6523895263672	1631.070190429688	1209.076293945313	189.1959686279297	1766.718505859376	1263.169189453125	195.2726898193361	1821.174560546876	1226.595581054688	200.8391265869142	1815.021972656251	1257.965087890625	239.5552825927736	1860.438476562501	1186.291015625	308.7225952148439	1902.892211914063	1208.394775390625	251.3523101806642	1040.961547851563	1402.340087890625	161.4339752197266	908.5809936523442	1335.362915039063	171.9870147705079	865.8576049804692	1326.29052734375	222.1745758056642	845.1539916992192	1315.3974609375	177.0311431884766	794.6174316406255	1288.88623046875	169.5608215332032	808.5358886718755	1194.97607421875	224.7693939208986	672.3093872070315	1270.800903320313	227.5796813964845	632.7508544921877	1258.8828125	278.5975341796876	612.4191894531252	1246.304931640625	233.637664794922	580.1809692382815	1178.550048828125	316.0136108398439	543.3222656250002	1211.129150390625	250.1807708740236	2307.400146484376	1285.450927734375	1512.081420898438	83.95650482177737	1283.408447265625	1540.653930664063	
175	0.87	1215.658569335938	1573.223388671876	358.496307373047	1138.942260742188	1588.276489257813	300.0364685058595	1291.08251953125	1588.428710937501	295.3434143066407	1211.51318359375	1449.260620117188	133.7848205566407	1226.071166992188	1244.518310546875	78.64365386962893	1230.351440429688	1212.203247070313	74.33860015869143	1178.511474609375	1151.294799804688	69.38068389892581	1227.415771484375	1150.412719726563	78.58061981201175	1226.284790039063	1109.531372070313	91.82575988769534	1225.576782226563	1087.096923828125	68.40944671630862	1172.46435546875	1027.501098632813	69.70082092285159	1222.043701171875	1025.335571289063	62.02533721923831	1247.394165039063	975.595336914063	72.69030761718753	1197.72021484375	985.226196289063	79.84045410156253	1208.873291015625	927.2319946289067	49.28829574584964	1336.363037109375	942.4234008789067	288.5849609375001	1108.77783203125	941.9912109375005	292.8341064453126	1259.260375976563	991.710083007813	84.45178985595706	1170.1162109375	990.3738403320317	85.24696350097659	1443.358032226563	737.6096801757815	202.3779144287111	1426.426635742188	677.0698242187502	153.1327209472657	1440.505249023438	675.6212158203127	201.3918762207032	1426.9482421875	497.995544433594	192.5380249023439	1283.105102539063	465.9831237792971	215.8993682861329	1428.0009765625	442.3770446777346	152.2970733642579	1449.639892578125	326.3486938476564	144.8297729492188	1444.312377929688	260.3057556152345	101.6721801757813	1449.951171875	264.4831542968751	150.9876403808594	1434.084228515625	85.34122467041018	126.1534881591797	1350.445068359375	96.33579254150396	169.3626098632813	1374.829345703125	38.9218101501465	78.44058227539065	1391.23681640625	47.30851364135744	289.6543884277345	1492.145751953125	32.10945510864259	238.5671844482423	1006.071899414063	708.2987060546877	175.8536224365235	992.4093627929692	636.0661621093752	207.2373962402345	1009.275329589844	647.6755371093752	161.4473724365235	1013.477600097657	496.849792480469	161.4458618164063	1151.458862304688	461.5593566894534	209.2902679443361	1014.919555664063	442.4813537597659	117.403434753418	998.210327148438	323.2266845703126	91.95574951171878	982.9912109375005	255.8970642089845	131.4353790283204	1002.129211425782	262.1246643066407	85.3823165893555	1016.784851074219	86.78923034667972	90.09107208251956	1084.263305664063	97.01618194580084	153.0517883300782	1077.663940429688	38.26853561401369	58.05467224121097	1022.244995117188	43.194149017334	261.6037902832032	937.2033691406255	40.95767211914064	202.350799560547	1224.249755859375	1365.970825195313	282.7404174804689	1226.321533203125	1208.370971679688	319.6192016601564	1399.755249023438	1413.009521484375	143.7978820800782	1513.284545898438	1347.873779296875	130.8921203613282	1555.543457031251	1297.3408203125	121.338966369629	1572.752441406251	1332.63427734375	155.5621795654297	1681.057250976563	1295.115112304688	166.6831054687501	1631.074340820313	1209.081298828125	189.2102661132813	1766.714477539063	1263.165405273438	195.2937011718751	1821.186645507813	1226.603515625	200.8548736572267	1815.048583984376	1257.948608398438	239.4648590087892	1860.434936523438	1186.27978515625	308.730682373047	1902.889282226563	1208.395385742188	251.3721160888673	1040.954345703125	1402.344848632813	161.4570770263672	908.5829467773442	1335.365966796875	172.0048370361329	865.868286132813	1326.278198242188	222.1839447021486	845.1513061523442	1315.417602539063	177.0313415527344	794.6200561523442	1288.899536132813	169.5762481689454	808.513549804688	1194.99755859375	224.779998779297	672.3156738281252	1270.8203125	227.5524749755861	632.7573242187502	1258.897583007813	278.5697021484376	612.3830566406252	1246.203491210938	233.8493652343751	580.153259277344	1178.577270507813	316.0003967285157	543.3051757812502	1211.1552734375	250.1847991943361	2307.416015625001	1285.452514648438	1512.101928710938	83.95864868164065	1283.4052734375	1540.650512695313	
176	0.875	1215.656005859375	1573.215209960938	358.5477294921876	1138.942016601563	1588.270751953126	300.0879516601564	1291.080078125	1588.416992187501	295.3923645019532	1211.505004882813	1449.265869140625	133.8031158447266	1226.081787109375	1244.515869140625	78.67061614990237	1230.344604492188	1212.203125	74.37479400634768	1178.515625	1151.29443359375	69.40710449218753	1227.415405273438	1150.412231445313	78.59925842285159	1226.286010742188	1109.527099609375	91.85546875000003	1225.579467773438	1087.09716796875	68.44071197509768	1172.4560546875	1027.505493164063	69.72437286376956	1222.046264648438	1025.332641601563	62.03903579711917	1247.3828125	975.6284790039067	72.72502136230472	1197.706176757813	985.2216796875005	79.90637969970706	1208.868896484375	927.2321777343755	49.30329132080081	1336.35888671875	942.420776367188	288.6043090820314	1108.779907226563	941.9855346679692	292.857635498047	1259.260131835938	991.7103881835942	84.47119903564456	1170.127197265625	990.3717651367192	85.26856994628909	1443.364501953125	737.608825683594	202.4047241210939	1426.42578125	677.0662841796877	153.1547851562501	1440.512451171875	675.619567871094	201.4299926757814	1426.946899414063	497.9962158203127	192.5394287109376	1282.91357421875	466.0523376464846	216.2778167724611	1428.003662109375	442.3749084472659	152.2964019775391	1449.638916015625	326.3491210937501	144.8394775390626	1444.315063476563	260.3125000000001	101.681007385254	1449.953002929688	264.4811096191407	150.9908752441407	1434.091552734375	85.34424591064456	126.157096862793	1350.442749023438	96.33940887451178	169.3689727783204	1374.826904296875	38.9253273010254	78.4421081542969	1391.241943359375	47.3061866760254	289.6523742675782	1492.1494140625	32.11109542846681	238.5631561279298	1006.072204589844	708.2980957031252	175.8679351806641	992.4009399414067	636.0639648437502	207.2444000244142	1009.266418457032	647.6714477539065	161.4522552490235	1013.476867675782	496.8460693359377	161.4499511718751	1151.451538085938	461.5603637695315	209.2920074462892	1014.919799804688	442.4817199707034	117.4026641845704	998.1859741210942	323.2371215820314	91.91336822509768	983.213500976563	255.8064270019532	131.5365905761719	1002.034301757813	262.0084838867189	85.28145599365237	1016.780517578125	86.78678894042972	90.0968933105469	1084.258666992188	97.01683044433599	153.0543212890626	1077.6640625	38.26929855346681	58.05035781860354	1022.252075195313	43.19182586669923	261.6045532226564	937.201049804688	40.95951080322267	202.3540954589845	1224.246459960938	1365.955932617188	282.7747192382814	1226.322143554688	1208.359375	319.6389770507814	1399.749877929688	1413.001220703125	143.8217773437501	1513.274291992188	1347.864624023438	130.930160522461	1555.541015625001	1297.329467773438	121.3595352172852	1572.756469726563	1332.633056640625	155.5928497314454	1681.055908203126	1295.119384765625	166.6991882324219	1631.069091796876	1209.082153320313	189.2329406738282	1766.719604492188	1263.173583984375	195.3140869140626	1821.176513671876	1226.60498046875	200.8901977539064	1815.014770507813	1257.954223632813	239.6031188964845	1860.433959960938	1186.268676757813	308.7420043945314	1902.885131835938	1208.3955078125	251.3899383544923	1040.955322265625	1402.349731445313	161.486557006836	908.5834960937505	1335.362426757813	172.0440521240235	865.7319335937505	1326.52392578125	222.1803283691407	845.1423339843755	1315.436157226563	177.0468139648438	794.6024780273442	1288.916015625	169.5736541748047	808.5006713867192	1195.019775390625	224.7907714843751	672.2786865234377	1270.838256835938	227.5760192871095	632.7705078125002	1258.89306640625	278.5399780273439	612.3818969726565	1246.322631835938	233.669647216797	580.1277465820315	1178.607299804688	316.0016479492189	543.2857666015627	1211.192749023438	250.1855773925782	2307.406250000001	1285.44140625	1512.081909179688	83.95828247070315	1283.411987304688	1540.647338867188	
177	0.88	1215.651489257813	1573.202514648438	358.6003417968751	1138.943481445313	1588.280151367188	300.1269836425782	1291.0849609375	1588.405517578126	295.4311523437501	1211.496826171875	1449.265991210938	133.8455810546876	1226.078369140625	1244.519409179688	78.70401763916018	1230.336547851563	1212.205200195313	74.4081726074219	1178.518310546875	1151.29443359375	69.4273376464844	1227.419677734375	1150.414916992188	78.60496520996097	1226.286499023438	1109.526000976563	91.88153839111331	1225.571899414063	1087.098510742188	68.45776367187503	1172.453735351563	1027.5029296875	69.7419357299805	1222.038696289063	1025.335327148438	62.06535339355472	1247.422119140625	975.6408081054692	72.75998687744143	1197.711547851563	985.2420043945317	79.89554595947268	1208.886474609375	927.2459106445317	49.32317352294925	1336.354614257813	942.4163208007817	288.6189270019532	1108.779907226563	941.9726562500005	292.8636474609376	1259.278442382813	991.7086791992192	84.48388671875003	1170.117553710938	990.3784179687505	85.28163909912112	1443.363037109375	737.6031494140627	202.4218750000001	1426.417358398438	677.0766601562502	153.1571502685547	1440.51611328125	675.6226196289065	201.4457397460939	1426.941772460938	497.9977111816409	192.5443420410157	1282.962524414063	466.0473632812502	216.2708740234376	1427.997924804688	442.3750610351565	152.3025817871094	1449.643310546875	326.3547363281251	144.8486785888672	1444.333251953125	260.3096618652345	101.6872634887696	1449.953735351563	264.4847412109376	150.9977722167969	1434.091918945313	85.34355926513675	126.1609115600587	1350.452880859375	96.34162139892584	169.3733520507813	1374.828857421875	38.92443847656251	78.43385314941409	1391.240478515625	47.30713653564455	289.651092529297	1492.14501953125	32.10709381103517	238.5690917968751	1006.067565917969	708.2915039062502	175.8802490234376	992.400268554688	636.0533447265627	207.2350616455079	1009.265319824219	647.6739501953127	161.4591369628907	1013.481262207032	496.842712402344	161.4496765136719	1151.4482421875	461.5566711425784	209.2914123535157	1014.916625976563	442.4806213378909	117.4115066528321	998.2527465820317	323.2179260253907	92.01363372802737	982.9924926757817	255.8946228027345	131.4407196044922	1002.126831054688	262.1281738281251	85.38716888427737	1016.778259277344	86.78565979003909	90.08916473388675	1084.256958007813	97.01670074462896	153.055160522461	1077.667602539063	38.26425170898439	58.05155181884768	1022.249267578125	43.19448852539064	261.6046142578126	937.2055664062505	40.95314025878908	202.3621673583986	1224.248657226563	1365.944458007813	282.8207092285157	1226.317260742188	1208.3388671875	319.6489868164064	1399.746337890625	1412.994384765625	143.8509063720704	1513.27880859375	1347.868530273438	130.951644897461	1555.529174804688	1297.326782226563	121.3877105712891	1572.751464843751	1332.6298828125	155.6101226806641	1681.051513671876	1295.115478515625	166.7313995361329	1631.061157226563	1209.07080078125	189.2526245117188	1766.717651367188	1263.170654296875	195.3475494384767	1821.184692382813	1226.624633789063	200.9195709228517	1815.010864257813	1257.951049804688	239.6298675537111	1860.439208984376	1186.262329101563	308.7492065429689	1902.888793945313	1208.398681640625	251.4063110351564	1040.95361328125	1402.348999023438	161.5132598876954	908.532592773438	1335.382690429688	172.0281066894532	865.7286987304692	1326.5458984375	222.1723785400392	845.138061523438	1315.454345703125	177.0519409179688	794.6079711914067	1288.930297851563	169.5872802734376	808.4812622070317	1195.034057617188	224.7921142578126	672.3114013671877	1270.8603515625	227.5606079101564	632.855651855469	1259.053466796875	278.4490051269532	612.2905883789065	1246.427978515625	233.7574005126954	580.104187011719	1178.641479492188	315.9980773925782	543.2746582031252	1211.221923828125	250.1853179931642	2307.396972656251	1285.468505859375	1512.079833984375	83.95681762695315	1283.410888671875	1540.649536132813	
